<?xml version="1.0" encoding="utf-8"?>
<!-- Generator: Adobe Illustrator 25.0.1, SVG Export Plug-In . SVG Version: 6.00 Build 0)  -->
<svg version="1.1" id="Layer_1" xmlns="http://www.w3.org/2000/svg" xmlns:xlink="http://www.w3.org/1999/xlink" x="0px" y="0px"
	 viewBox="0 0 1425 301.59" style="enable-background:new 0 0 1425 301.59;" xml:space="preserve">
<style type="text/css">
	.st0{fill:#6347FA;}
	.st1{fill:#F40953;}
	.st2{fill:#FF9408;}
	.st3{fill:#32BBB9;}
	.st4{fill:#00234A;}
</style>
<g>
	<path class="st0" d="M204.2,118.63v45.8c0,2.11,2.28,3.43,4.11,2.37l39.66-22.9c1.83-1.06,1.83-3.69,0-4.75l-39.66-22.9
		C206.49,115.2,204.2,116.52,204.2,118.63z"/>
	<path class="st1" d="M115.42,187.64l0-45.8c0-2.11-2.28-3.43-4.11-2.37l-39.66,22.9c-1.83,1.06-1.83,3.69,0,4.75l39.66,22.9
		C113.14,191.07,115.42,189.75,115.42,187.64z"/>
	<path class="st2" d="M137.27,157.21v45.8c0,2.11,2.28,3.43,4.11,2.37l39.66-22.9c1.83-1.06,1.83-3.69,0-4.75l-39.66-22.9
		C139.55,153.78,137.27,155.1,137.27,157.21z"/>
	<path class="st3" d="M182.55,149.19l0-45.8c0-2.11-2.28-3.43-4.11-2.37l-39.66,22.9c-1.83,1.06-1.83,3.69,0,4.75l39.66,22.9
		C180.27,152.61,182.55,151.3,182.55,149.19z"/>
	<path class="st4" d="M430.33,205.81h-11.81c-1.71,0-3.09-1.39-3.09-3.09v-70.24c0-1.71,1.39-3.09,3.09-3.09h11.81
		c1.71,0,3.09,1.39,3.09,3.09v70.24C433.42,204.42,432.04,205.81,430.33,205.81z"/>
	<path class="st4" d="M487,120.49c25.83,0,40.49,18.33,40.49,43.99v2.07c0,1.71-1.39,3.09-3.09,3.09h-59.09
		c-0.96,0-1.7,0.88-1.53,1.83c2.39,12.95,13.25,19.5,24.72,19.5c9.37,0,16.68-3.51,22.25-8.25c1.31-1.12,3.28-0.95,4.38,0.37
		l6.89,8.25c1.05,1.26,0.95,3.14-0.26,4.24c-8.12,7.4-18.71,12.22-33.09,12.22c-26.66,0-43.49-17.66-43.49-43.32
		C445.18,139.99,461.34,120.49,487,120.49z M486.67,136.49c-12.46,0-19.99,6.57-22.6,17.59c-0.23,0.97,0.51,1.91,1.51,1.91h40.49
		c0.95,0,1.68-0.86,1.53-1.8C505.91,143.66,498.98,136.49,486.67,136.49z"/>
	<path class="st4" d="M686.03,120.49c25.83,0,40.49,18.33,40.49,43.99v2.07c0,1.71-1.39,3.09-3.09,3.09h-59.09
		c-0.96,0-1.7,0.88-1.53,1.83c2.39,12.95,13.25,19.5,24.72,19.5c9.37,0,16.68-3.51,22.25-8.25c1.31-1.12,3.28-0.95,4.38,0.37
		l6.89,8.25c1.05,1.26,0.95,3.14-0.26,4.24c-8.12,7.4-18.71,12.22-33.09,12.22c-26.66,0-43.49-17.66-43.49-43.32
		C644.2,139.99,660.37,120.49,686.03,120.49z M685.7,136.49c-12.46,0-19.99,6.57-22.6,17.59c-0.23,0.97,0.51,1.91,1.51,1.91h40.49
		c0.95,0,1.68-0.86,1.53-1.8C704.93,143.66,698.01,136.49,685.7,136.49z"/>
	<path class="st4" d="M554.59,205.81h-12.14c-1.71,0-3.09-1.39-3.09-3.09V103.8c0-1.71,1.39-3.09,3.09-3.09h12.14
		c1.71,0,3.09,1.39,3.09,3.09v98.92C557.68,204.42,556.3,205.81,554.59,205.81z"/>
	<path class="st4" d="M602.77,120.49c13.71,0,23.94,4.46,31.07,12.86c1.11,1.31,0.95,3.28-0.37,4.39l-8.5,7.12
		c-1.23,1.03-3.03,0.95-4.16-0.18c-4.76-4.75-11.18-7.69-19.37-7.69c-8.33,0-13.5,3-13.5,8.33c0,5.67,5.5,7,19.66,10.33
		c16.66,4,28.33,8.83,28.33,25.66c0,17.16-12.33,26.49-33.83,26.49c-14.48,0-28.64-5.64-35.86-14.89c-1.01-1.29-0.83-3.14,0.39-4.23
		l8.38-7.41c1.29-1.14,3.23-0.99,4.38,0.29c5.22,5.84,13.01,9.9,24.04,9.9c8.83,0,14.16-3,14.16-9.16c0-6.17-5.17-7.5-18.5-10.5
		c-14.33-3.17-29.49-8.17-29.49-25.83C569.61,130.16,582.27,120.49,602.77,120.49z"/>
	<path class="st4" d="M741.45,122.49h11.31c1.71,0,3.09,1.39,3.09,3.09v4.89c0,1.45,1.8,2.09,2.73,0.99
		c6.23-7.35,14.81-10.97,24.76-10.97c19.16,0,30.16,12.5,30.16,34.16v48.06c0,1.71-1.39,3.09-3.09,3.09h-12.14
		c-1.71,0-3.09-1.39-3.09-3.09v-44.9c0-13.16-6.33-20.33-18.16-20.33c-13.5,0-20.66,10-20.66,28.99v36.23
		c0,1.71-1.39,3.09-3.09,3.09h-11.81c-1.71,0-3.09-1.39-3.09-3.09v-77.13C738.36,123.88,739.74,122.49,741.45,122.49z"/>
	<path class="st4" d="M413.18,111.02c0-6.51,4.73-11.24,11.24-11.24c6.51,0,11.24,4.73,11.24,11.24s-4.73,11.24-11.24,11.24
		C417.92,122.26,413.18,117.53,413.18,111.02z"/>
	<path class="st4" d="M297.56,100.71h12.68c1.78,0,3.48,0.77,4.65,2.11l62.49,71.37c0.94,1.07,2.71,0.41,2.71-1.02V103.8
		c0-1.71,1.39-3.09,3.09-3.09H396c1.71,0,3.09,1.39,3.09,3.09v98.92c0,1.71-1.39,3.09-3.09,3.09h-12.98c-1.79,0-3.49-0.77-4.66-2.12
		l-62.18-71.2c-0.94-1.08-2.71-0.41-2.71,1.02v69.21c0,1.71-1.39,3.09-3.09,3.09h-12.81c-1.71,0-3.09-1.39-3.09-3.09V103.8
		C294.47,102.09,295.85,100.71,297.56,100.71z"/>
</g>
<g>
	<path class="st4" d="M927.11,128.81c-0.64-5.89-3.5-10.57-8.58-14.05c-5.08-3.48-11.46-5.22-19.14-5.22
		c-5.42,0-10.18,0.84-14.29,2.53c-4.11,1.69-7.33,4.02-9.66,7c-2.33,2.98-3.49,6.36-3.49,10.15c0,2.79,0.66,5.23,1.99,7.33
		c1.32,2.1,3.11,3.9,5.37,5.4c2.25,1.5,4.75,2.78,7.5,3.85c2.75,1.07,5.52,1.96,8.32,2.69l12.27,3.2c3.71,0.93,7.42,2.12,11.13,3.56
		c3.71,1.45,7.11,3.26,10.2,5.45c3.09,2.19,5.57,4.85,7.44,8c1.87,3.15,2.81,6.93,2.81,11.34c0,5.65-1.61,10.72-4.83,15.23
		c-3.22,4.51-7.84,8.08-13.86,10.72s-13.24,3.95-21.64,3.95c-7.92,0-14.79-1.2-20.62-3.59c-5.83-2.39-10.42-5.71-13.75-9.94
		c-3.33-4.23-5.21-9.14-5.62-14.72h10.91c0.38,4.17,1.89,7.7,4.54,10.59c2.65,2.89,6.1,5.09,10.34,6.58
		c4.24,1.5,8.98,2.25,14.2,2.25c5.79,0,10.95-0.89,15.48-2.66c4.52-1.77,8.09-4.25,10.68-7.44c2.59-3.18,3.89-6.89,3.89-11.13
		c0-3.58-1.02-6.58-3.07-9.01c-2.04-2.43-4.89-4.47-8.55-6.12c-3.66-1.65-7.89-3.12-12.7-4.39l-13.92-3.72
		c-9.13-2.48-16.21-5.9-21.25-10.28c-5.04-4.37-7.55-9.95-7.55-16.73c0-5.68,1.68-10.68,5.03-15c3.35-4.32,7.9-7.69,13.63-10.12
		c5.74-2.43,12.18-3.64,19.34-3.64c7.23,0,13.63,1.21,19.2,3.62c5.57,2.41,9.99,5.72,13.26,9.94c3.28,4.22,5.03,9.01,5.25,14.38
		H927.11z"/>
	<path class="st4" d="M958.33,237.88V128.81h9.83v15.13h1.25c1.17-2.38,2.82-4.81,4.94-7.31c2.12-2.5,4.93-4.6,8.44-6.33
		c3.5-1.72,7.93-2.58,13.27-2.58c7.2,0,13.5,1.71,18.92,5.14c5.42,3.43,9.63,8.21,12.64,14.36c3.01,6.15,4.52,13.3,4.52,21.46
		c0,8.19-1.52,15.37-4.55,21.53c-3.03,6.16-7.23,10.97-12.61,14.41c-5.38,3.44-11.63,5.16-18.75,5.16c-5.3,0-9.72-0.86-13.27-2.58
		c-3.54-1.72-6.4-3.85-8.58-6.38c-2.18-2.53-3.83-5-4.97-7.41h-0.91v44.46H958.33z M968.33,168.52c0,6.4,1.05,12.08,3.15,17.02
		c2.1,4.94,5.14,8.81,9.12,11.62c3.98,2.81,8.77,4.21,14.37,4.21c5.79,0,10.7-1.45,14.71-4.36c4.01-2.91,7.06-6.84,9.15-11.8
		c2.08-4.96,3.12-10.52,3.12-16.68c0-6.09-1.03-11.59-3.1-16.47c-2.06-4.89-5.09-8.77-9.09-11.65c-4-2.87-8.93-4.31-14.8-4.31
		c-5.68,0-10.51,1.39-14.49,4.16c-3.98,2.77-7,6.59-9.06,11.46C969.36,156.58,968.33,162.19,968.33,168.52z"/>
	<path class="st4" d="M1084.25,209.78c-7.54,0-14.19-1.74-19.97-5.22c-5.78-3.48-10.29-8.29-13.55-14.43
		c-3.26-6.15-4.89-13.25-4.89-21.3c0-8.12,1.63-15.28,4.89-21.46c3.26-6.18,7.77-11,13.55-14.46c5.77-3.46,12.43-5.19,19.97-5.19
		c7.54,0,14.18,1.74,19.94,5.22c5.76,3.48,10.27,8.3,13.55,14.46s4.91,13.31,4.91,21.43c0,8.06-1.63,15.16-4.89,21.3
		c-3.26,6.15-7.77,10.96-13.55,14.43C1098.44,208.05,1091.79,209.78,1084.25,209.78z M1084.25,201.37c6.06,0,11.19-1.48,15.39-4.44
		c4.2-2.96,7.39-6.9,9.57-11.83c2.18-4.92,3.27-10.35,3.27-16.27c0-5.92-1.09-11.36-3.27-16.32c-2.18-4.96-5.37-8.93-9.57-11.93
		c-4.2-2.99-9.34-4.49-15.39-4.49c-6.02,0-11.14,1.5-15.37,4.49c-4.22,3-7.42,6.97-9.6,11.93c-2.18,4.96-3.27,10.4-3.27,16.32
		c0,5.92,1.09,11.34,3.27,16.27c2.18,4.92,5.37,8.87,9.57,11.83C1073.06,199.89,1078.19,201.37,1084.25,201.37z"/>
	<path class="st4" d="M1140.86,208.13v-79.32h9.83V141h0.74c1.74-3.99,4.78-7.22,9.12-9.68c4.34-2.46,9.25-3.69,14.74-3.69
		c0.83,0,1.76,0.02,2.78,0.05c1.02,0.03,1.87,0.07,2.56,0.1v9.35c-0.45-0.07-1.25-0.17-2.39-0.31c-1.14-0.14-2.37-0.21-3.69-0.21
		c-4.55,0-8.59,0.87-12.13,2.61c-3.54,1.74-6.33,4.14-8.38,7.2c-2.05,3.06-3.07,6.56-3.07,10.48v51.23H1140.86z"/>
	<path class="st4" d="M1234.35,199.61c-0.72,0.17-1.55,0.34-2.5,0.49c-0.95,0.15-2.08,0.23-3.41,0.23c-2.27,0-4.41-0.39-6.42-1.16
		c-2.01-0.77-3.64-2.1-4.89-3.98c-1.25-1.88-1.87-4.47-1.87-7.77v-50.61h18.46v-8h-18.46v-19h-10.17v19h-13.01v8h13.01v52.78
		c0,4.34,1.1,7.97,3.29,10.9c2.2,2.93,5.01,5.13,8.44,6.61c3.43,1.48,7,2.22,10.71,2.22c2.12,0,3.9-0.15,5.34-0.44
		c1.44-0.29,2.65-0.61,3.64-0.96L1234.35,199.61z"/>
	<path class="st4" d="M1309.71,146.21l-9.26,2.38c-0.91-2.38-2.2-4.53-3.86-6.46c-1.67-1.93-3.83-3.46-6.5-4.6
		c-2.67-1.14-5.97-1.7-9.91-1.7c-5.91,0-10.76,1.27-14.54,3.82c-3.79,2.55-5.68,5.84-5.68,9.86c0,3.41,1.3,6.17,3.89,8.29
		c2.59,2.12,6.6,3.8,12.02,5.03l13.18,2.94c7.31,1.62,12.79,4.18,16.45,7.7c3.65,3.51,5.48,7.92,5.48,13.22
		c0,4.48-1.36,8.45-4.09,11.93c-2.73,3.48-6.52,6.21-11.39,8.19c-4.87,1.98-10.5,2.97-16.9,2.97c-8.52,0-15.55-1.75-21.08-5.24
		c-5.53-3.49-9.07-8.55-10.62-15.16l9.71-2.17c1.25,4.72,3.7,8.28,7.36,10.69c3.65,2.41,8.47,3.61,14.46,3.61
		c6.7,0,12.06-1.37,16.08-4.11c4.01-2.74,6.02-6.17,6.02-10.3c0-3.2-1.17-5.9-3.52-8.08c-2.35-2.19-5.91-3.8-10.68-4.83l-14.26-3.1
		c-7.58-1.65-13.18-4.27-16.82-7.85c-3.64-3.58-5.45-8.02-5.45-13.32c0-4.37,1.31-8.22,3.92-11.54c2.61-3.32,6.21-5.93,10.79-7.82
		c4.58-1.89,9.81-2.84,15.68-2.84c7.99,0,14.38,1.64,19.17,4.93C1304.13,135.94,1307.59,140.46,1309.71,146.21z"/>
</g>
</svg>
